PathFileType	4	(X/Y/Z)	C:/Users/opensim2020/Desktop/walking_exp_matlab/subject01_walking12_straight_01.trc	
DataRate	CameraRate	NumFrames	NumMarkers	Units	OrigDataRate	OrigDataStartFrame	OrigNumFrames	
100.00	100.00	8	44	mm	100.00	739	193	
Frame#	Time	LFHD			RFHD			LBHD			RBHD			C7			T10			CLAV			STRN			RBAK			LSHO			LUPA			LELB			LFRM			LWRA			LWRB			LFIN			RSHO			RUPA			RELB			RFRM			RWRA			RWRB			RFIN			LASI			RASI			LPSI			RPSI			LTHI			LKNE			LTIB			LANK			LHEE			LTOE			RTHI			RKNE			RTIB			RANK			RHEE			RTOE			*39			*40			*41			*42			*43			
		X1	Y1	Z1	X2	Y2	Z2	X3	Y3	Z3	X4	Y4	Z4	X5	Y5	Z5	X6	Y6	Z6	X7	Y7	Z7	X8	Y8	Z8	X9	Y9	Z9	X10	Y10	Z10	X11	Y11	Z11	X12	Y12	Z12	X13	Y13	Z13	X14	Y14	Z14	X15	Y15	Z15	X16	Y16	Z16	X17	Y17	Z17	X18	Y18	Z18	X19	Y19	Z19	X20	Y20	Z20	X21	Y21	Z21	X22	Y22	Z22	X23	Y23	Z23	X24	Y24	Z24	X25	Y25	Z25	X26	Y26	Z26	X27	Y27	Z27	X28	Y28	Z28	X29	Y29	Z29	X30	Y30	Z30	X31	Y31	Z31	X32	Y32	Z32	X33	Y33	Z33	X34	Y34	Z34	X35	Y35	Z35	X36	Y36	Z36	X37	Y37	Z37	X38	Y38	Z38	X39	Y39	Z39	X40	Y40	Z40	X41	Y41	Z41	X42	Y42	Z42	X43	Y43	Z43	X44	Y44	Z44	

121	1.200	-1087.99622	151.98410	1670.10291	-973.65460	156.85654	1672.08301	-1090.77820	44.59688	1606.74158	-970.05029	47.02279	1607.00073	-1054.43860	26.07587	1423.21045	-1049.36487	-10.48298	1129.97925	-1046.40515	170.28392	1355.73413	-1057.49609	214.03780	1201.02356	-985.81952	-30.65663	1224.60608	-1209.56860	117.35539	1388.80713	-1303.21594	115.05096	1210.08276	-1319.20679	134.72884	1057.94263	-1346.97852	224.51329	984.92664	-1334.90771	352.92383	934.31140	-1356.86230	309.99442	898.72772	-1373.28174	386.77069	871.07953	-897.11658	97.81985	1376.78687	-811.81146	13.79920	1178.94775	-815.16528	0.70353	1055.65881	-790.59332	2.51693	934.65125	-817.88617	53.15269	804.05890	-777.43011	11.73514	812.88196	-784.02478	30.38981	729.56592	-1170.30615	150.95380	918.35107	-956.26215	176.16699	924.52759	-1094.59094	-28.20706	935.20953	-949.74762	-10.55092	935.21991	-1221.88733	52.34925	592.83966	-1212.59668	10.89929	462.17874	-1218.35608	-124.95947	327.73395	-1171.29370	-261.77896	153.35724	-1117.21875	-309.25183	159.34637	-1163.44055	-173.76595	33.13633	-894.82397	198.41649	602.79205	-928.84680	249.84438	456.09995	-924.16144	232.83183	279.93344	-975.64874	249.03671	75.90504	-1028.83472	205.04233	35.96088	-972.78650	389.00287	43.83925	-995.98596	140.47534	1704.42737	-3102.01392	1973.08020	1023.89722	-3140.75049	2012.43542	1022.07764						 
122	1.210	-1085.32666	162.84222	1670.71057	-971.17737	168.36105	1672.66003	-1087.95300	55.29231	1607.97693	-967.31396	58.14243	1608.10986	-1052.11438	36.48330	1423.49976	-1047.92078	0.83472	1130.48779	-1044.44397	181.07669	1356.75732	-1055.85193	225.42180	1202.34009	-983.70258	-19.03473	1224.76697	-1207.37366	127.93275	1389.79260	-1301.05713	124.82095	1211.04688	-1317.15845	143.29153	1058.85474	-1344.71973	232.54016	985.26050	-1332.31726	360.34888	933.27527	-1354.46191	317.16516	898.08112	-1370.72559	393.83023	869.87585	-895.08618	108.90033	1377.47681	-809.57794	27.06134	1178.79993	-813.35620	14.75951	1055.65015	-788.84698	17.03148	934.83246	-816.46814	67.77915	804.18140	-775.68420	26.34621	813.12048	-782.47803	45.10218	729.49506	-1168.26245	163.36255	918.98584	-954.38904	187.85301	925.86792	-1093.75366	-16.00098	936.03271	-948.62579	1.12233	937.43335	-1221.32849	70.17886	591.67908	-1213.49426	30.01015	460.89844	-1218.78601	-110.31116	330.87650	-1171.58276	-251.14349	159.96822	-1116.47046	-296.42627	168.60338	-1162.80652	-172.53862	33.24470	-893.57642	207.81450	602.87726	-928.23596	258.46790	455.34100	-923.12543	239.10396	278.87250	-975.77557	250.36520	75.75034	-1028.66858	205.41689	36.39091	-973.38373	390.13397	42.46577	-993.49567	152.12038	1705.17419	-3102.01440	1973.13696	1023.54797	-3140.75781	2012.48486	1022.05029						 
123	1.220	-1083.23181	174.01485	1671.53662	-968.81085	179.89734	1673.13269	-1085.39990	65.92988	1609.42249	-964.62561	69.35360	1609.20203	-1050.04358	46.67786	1423.97510	-1046.49060	12.08803	1130.87976	-1042.70935	191.77902	1357.81067	-1054.35828	236.66179	1203.49268	-981.63318	-7.49071	1224.92798	-1205.26453	138.24791	1390.78394	-1299.07434	134.63538	1212.09412	-1315.07971	151.56308	1059.78442	-1342.41614	240.21985	985.44257	-1329.61853	367.35876	931.91656	-1352.05273	323.90021	897.25061	-1368.15955	400.37820	868.35535	-893.22504	120.03580	1378.21802	-807.31726	40.43178	1178.85938	-811.48816	28.86795	1055.75549	-787.07404	31.75331	935.14624	-814.83038	82.72013	804.51343	-773.72552	41.69541	813.42957	-780.98175	60.19784	729.56372	-1165.91943	175.57042	919.67633	-952.23157	199.21785	927.16718	-1092.63037	-4.05337	936.81061	-947.42896	12.67345	939.43860	-1221.05371	88.47048	590.50739	-1214.00293	49.52650	459.74860	-1219.07483	-94.64642	334.25699	-1172.17078	-239.20578	166.45766	-1116.05078	-282.30383	177.95927	-1161.86865	-171.24625	33.46788	-892.58472	216.59241	602.64435	-927.18298	266.47354	454.30627	-922.12286	244.21014	278.17145	-976.15198	251.29407	75.55417	-1028.63599	205.71275	36.62236	-974.08881	391.24878	41.60657	-991.52203	163.69276	1705.44067	-3101.98828	1973.04834	1023.50189	-3140.75757	2012.53040	1022.12531						 
124	1.230	-1080.75891	185.24808	1672.24731	-966.52197	191.38629	1673.46021	-1082.84607	76.72314	1610.86890	-962.03558	80.55865	1610.42383	-1047.87427	56.91376	1424.32849	-1044.95947	23.42908	1131.17920	-1041.05237	202.32240	1358.80212	-1053.02100	247.71454	1204.65906	-979.43524	3.85059	1225.21167	-1203.32166	148.27446	1391.78528	-1297.26440	144.35840	1213.10461	-1313.02539	159.57126	1060.73108	-1340.19299	247.58008	985.42303	-1326.88062	373.98544	930.27625	-1349.63330	330.21915	896.17273	-1365.44214	406.50711	866.47058	-891.35620	131.14038	1379.23804	-805.16095	53.97649	1178.97656	-809.57397	43.12340	1056.01953	-785.11670	46.73325	935.53174	-813.29395	97.96199	804.91718	-771.80988	57.29308	813.77515	-779.32617	75.93037	729.80670	-1163.58997	187.68411	920.44666	-949.87286	210.24425	928.28363	-1091.38672	7.71790	937.54987	-946.18530	24.29403	941.01147	-1220.70251	106.94434	589.50653	-1214.25452	69.20704	458.74237	-1219.02136	-78.04572	337.95276	-1173.17908	-226.26842	172.95705	-1116.44641	-267.45609	187.80093	-1161.07385	-169.21144	34.72307	-891.53461	225.47270	602.41876	-926.10419	274.31561	453.77072	-921.95282	249.09106	278.09848	-976.47284	252.34383	75.52655	-1028.70410	205.81586	36.86069	-974.73212	392.14767	40.96281	-989.02979	175.29822	1705.97864	-3101.86743	1973.25977	1023.48895	-3140.70093	2012.49670	1022.05957						 
125	1.240	-1078.48987	196.36197	1672.89661	-964.26068	202.97159	1673.81738	-1080.41931	87.53908	1612.43152	-959.80139	91.56829	1611.55237	-1045.85498	66.94101	1425.03296	-1043.31958	34.54471	1131.60669	-1039.60449	212.77730	1359.75171	-1051.79333	258.61026	1205.74414	-977.19055	15.10914	1225.72766	-1201.63184	158.02354	1392.79492	-1295.66675	153.97856	1214.09021	-1310.93958	167.30260	1061.53882	-1337.83691	254.60023	985.14832	-1324.13037	380.31219	928.32770	-1346.89514	336.16174	894.69049	-1362.54187	412.24820	864.13745	-889.80377	142.27171	1380.11975	-802.90674	67.29356	1179.25635	-807.62292	57.48573	1056.29138	-783.13977	61.90729	935.94006	-811.71558	113.50374	805.39526	-769.82867	73.20781	814.22174	-777.69635	91.95121	730.10931	-1161.13293	199.53481	921.26288	-947.43225	221.08931	929.31085	-1089.97400	19.32575	938.15594	-944.69177	35.38704	942.16150	-1220.02246	125.30488	588.72070	-1213.80042	89.27361	457.92102	-1218.78052	-60.46149	341.74814	-1174.09290	-212.46992	180.02007	-1117.31873	-252.07057	197.78166	-1160.05432	-164.92143	38.02333	-890.16565	233.67090	602.69763	-925.47809	280.76535	453.27197	-921.62421	253.13391	278.01682	-976.56824	252.79291	75.60788	-1028.77588	205.67780	37.08608	-974.99811	392.59073	40.53653	-986.60052	187.10324	1706.49414	-3101.91235	1973.10095	1023.49066	-3140.72974	2012.51038	1022.05945						 
126	1.250	-1076.56018	207.79137	1673.90369	-962.05975	214.58012	1674.20544	-1078.41675	98.33398	1614.26379	-957.60071	102.70115	1612.81555	-1044.05371	77.29683	1425.59692	-1041.55334	45.52035	1132.18262	-1038.36951	223.15721	1360.72852	-1050.66882	269.30124	1206.85535	-974.76556	26.09809	1226.48352	-1200.31384	167.57036	1393.75159	-1294.22632	163.31767	1214.98181	-1308.77087	175.06502	1062.13354	-1335.50830	261.32312	984.59674	-1321.34167	386.26718	926.03003	-1344.57996	341.76541	893.15540	-1359.73157	417.58478	861.48871	-888.28265	153.46951	1381.09753	-800.61755	80.79761	1179.59180	-805.64874	71.76852	1056.59814	-781.14337	77.14722	936.23071	-810.09979	129.38098	805.98145	-767.89093	89.48235	814.85547	-775.87311	108.57934	730.60437	-1158.82581	211.29672	922.10822	-945.08447	231.72369	930.25873	-1088.63208	30.60907	938.56543	-943.19104	46.00135	943.27246	-1218.94812	143.33478	588.24652	-1212.95740	109.75972	457.31915	-1218.51294	-41.91576	345.49387	-1174.50745	-197.72600	187.44914	-1118.14502	-235.97865	208.03435	-1159.32654	-158.71352	42.60677	-888.75745	241.26035	603.06250	-923.80505	287.05106	453.02731	-921.19025	257.25516	277.91156	-976.48169	253.00542	75.70294	-1028.53577	205.93288	37.00520	-974.91260	392.82776	40.19505	-984.26721	198.87167	1707.13452	-3102.01782	1973.03918	1023.52057	-3140.76123	2012.47595	1021.89014						 
127	1.260	-1074.38074	219.06866	1674.76062	-960.17053	226.11316	1674.78821	-1076.43567	109.23389	1616.03308	-955.72906	113.79609	1614.23535	-1042.35608	87.51085	1426.51709	-1039.76099	56.34603	1132.89575	-1037.25647	233.50060	1361.74268	-1049.63037	279.80823	1208.00110	-972.22217	36.33809	1227.58887	-1199.09119	177.07307	1394.73938	-1292.93848	172.32510	1215.83057	-1306.50537	182.65234	1062.55164	-1333.16150	267.70825	983.74255	-1318.60254	391.90524	923.45239	-1342.23755	346.86737	891.36743	-1356.55273	422.50873	858.34930	-886.94434	164.54529	1381.89941	-798.22766	94.42568	1180.18188	-803.57092	86.14892	1056.88574	-779.10004	92.58195	936.59094	-808.36346	145.83968	806.69965	-766.01996	106.25097	815.30139	-774.10138	125.53700	731.08289	-1156.72583	222.73207	922.91235	-942.86267	242.13103	931.13129	-1087.50940	41.67095	938.77032	-942.01129	56.24702	944.03210	-1217.13660	161.30559	588.26074	-1211.51965	130.90385	456.86835	-1218.52307	-22.20764	348.93954	-1174.35547	-181.61224	195.47467	-1118.52002	-218.96404	218.04521	-1158.70093	-150.29044	48.01964	-887.36090	248.34320	603.16113	-922.63751	292.74698	452.70490	-920.24286	259.66504	277.91306	-976.42041	252.77931	75.70223	-1028.42188	205.93103	37.10307	-974.77881	393.06024	39.72774	-982.04218	210.60738	1707.93799	-3102.01392	1973.06555	1023.36591	-3140.55688	2012.45740	1021.93170						 
128	1.270	-1072.57751	230.42059	1675.76147	-958.33685	237.58768	1675.47400	-1074.76123	120.19301	1617.83984	-954.01105	124.78291	1615.71350	-1040.63855	97.99185	1427.41858	-1037.94092	66.92281	1133.83179	-1036.26660	243.70428	1362.85400	-1048.59375	290.22241	1209.16931	-969.82941	46.96669	1228.65381	-1197.95349	186.61572	1395.66052	-1291.70325	180.90591	1216.61511	-1304.34509	189.82326	1062.92285	-1330.88647	273.77017	982.72998	-1315.88159	397.13681	920.60852	-1339.63806	351.72009	889.25385	-1353.79541	426.94360	855.12231	-885.69501	175.57570	1382.92761	-795.90222	107.74436	1180.65845	-801.46411	100.43335	1057.22095	-777.00330	108.22701	936.98273	-806.58173	162.53209	807.60187	-763.85785	122.95271	815.72552	-772.11450	143.24855	731.85846	-1154.84741	233.90536	923.78882	-940.73785	252.32416	932.00330	-1086.53882	52.42871	938.88196	-941.12451	66.46045	944.57684	-1215.56091	178.89087	588.61566	-1210.11963	152.28923	456.83563	-1218.38049	-1.47215	351.77530	-1173.63623	-164.59761	203.40660	-1118.23340	-201.18411	227.53249	-1158.45447	-139.43233	53.67907	-886.01605	255.31059	603.39001	-920.84253	297.60101	452.01706	-919.00092	261.82794	277.58652	-976.15521	252.99940	75.58553	-1028.15100	205.93828	37.19753	-974.46802	393.23288	39.46976	-980.21082	222.36839	1708.76416	-3101.95068	1973.12964	1023.59827	-3140.70532	2012.52527	1021.92902						 
